<svg xmlns="http://www.w3.org/2000/svg" width="159.435" height="159.435" viewBox="0 0 159.435 159.435">
  <g id="con-shovel" transform="translate(-209.499 -389.5)">
    <line id="Line_7" data-name="Line 7" x2="8.142" y2="8.141" transform="translate(271.776 478.517)" fill="none" stroke="#009723" stroke-linecap="round" stroke-linejoin="round" stroke-width="3"/>
    <path id="Path_2411" data-name="Path 2411" d="M321.182,404.156,263.634,461.7a5.756,5.756,0,0,1-8.14,0L243.283,449.49l-24.424,24.424c-12.213,12.21-7.378,41.47-4.07,44.775s32.564,8.143,44.775-4.07,24.424-24.424,24.424-24.424l-12.211-12.211a5.751,5.751,0,0,1,0-8.14L329.325,412.3" transform="translate(0 24.956)" fill="none" stroke="#009723" stroke-linecap="round" stroke-linejoin="round" stroke-width="3"/>
    <path id="Path_2412" data-name="Path 2412" d="M296.494,419.494l-8.14,8.14c-6.747,6.744-22.39,18.317-34.6,6.107s-.64-27.857,6.107-34.6L268,391Z" transform="translate(70.94 0)" fill="none" stroke="#009723" stroke-linecap="round" stroke-linejoin="round" stroke-width="3"/>
    <line id="Line_8" data-name="Line 8" x2="28.494" y2="28.494" transform="translate(330.798 399.142)" fill="none" stroke="#009723" stroke-linecap="round" stroke-linejoin="round" stroke-width="3"/>
    <path id="Path_2413" data-name="Path 2413" d="M239.83,424.021l-12.213,12.211-4.068,12.212,12.21-4.07,12.213-12.211" transform="translate(23.804 62.638)" fill="none" stroke="#009723" stroke-linecap="round" stroke-linejoin="round" stroke-width="3"/>
  </g>
</svg>
