<svg xmlns="http://www.w3.org/2000/svg" width="99.49" height="157.455" viewBox="0 0 99.49 157.455">
  <g id="con-ruler-pencil" transform="translate(1.5 1.5)">
    <path id="Stroke_294" data-name="Stroke 294" d="M0,0H31.956V86.084L15.978,133.15,0,86.084V0Z" transform="translate(63.912 21.304)" fill="none" stroke="#009723" stroke-linecap="round" stroke-linejoin="round" stroke-miterlimit="10" stroke-width="3"/>
    <path id="Stroke_295" data-name="Stroke 295" d="M0,8.964,9.653,0,20.305,10.652,30.957,0" transform="translate(64.911 101.195)" fill="none" stroke="#009723" stroke-linecap="round" stroke-linejoin="round" stroke-miterlimit="10" stroke-width="3"/>
    <path id="Stroke_296" data-name="Stroke 296" d="M0,0H10.849" transform="translate(74.465 138.477)" fill="none" stroke="#009723" stroke-linecap="round" stroke-linejoin="round" stroke-miterlimit="10" stroke-width="3"/>
    <path id="Stroke_297" data-name="Stroke 297" d="M0,58.586V0" transform="translate(74.564 31.956)" fill="none" stroke="#009723" stroke-linecap="round" stroke-linejoin="round" stroke-miterlimit="10" stroke-width="3"/>
    <path id="Stroke_298" data-name="Stroke 298" d="M0,154.455H37.282V0H0Z" fill="none" stroke="#009723" stroke-linecap="round" stroke-linejoin="round" stroke-miterlimit="10" stroke-width="3"/>
    <path id="Stroke_299" data-name="Stroke 299" d="M0,0H21.3" transform="translate(15.978 85.216)" fill="none" stroke="#009723" stroke-linecap="round" stroke-linejoin="round" stroke-miterlimit="10" stroke-width="3"/>
    <path id="Stroke_300" data-name="Stroke 300" d="M0,0H10.652" transform="translate(26.63 69.238)" fill="none" stroke="#009723" stroke-linecap="round" stroke-linejoin="round" stroke-miterlimit="10" stroke-width="3"/>
    <path id="Stroke_301" data-name="Stroke 301" d="M0,0H21.3" transform="translate(15.978 53.26)" fill="none" stroke="#009723" stroke-linecap="round" stroke-linejoin="round" stroke-miterlimit="10" stroke-width="3"/>
    <path id="Stroke_302" data-name="Stroke 302" d="M0,0H21.3" transform="translate(15.978 21.304)" fill="none" stroke="#009723" stroke-linecap="round" stroke-linejoin="round" stroke-miterlimit="10" stroke-width="3"/>
    <path id="Stroke_303" data-name="Stroke 303" d="M0,0H10.652" transform="translate(26.63 37.282)" fill="none" stroke="#009723" stroke-linecap="round" stroke-linejoin="round" stroke-miterlimit="10" stroke-width="3"/>
    <path id="Stroke_304" data-name="Stroke 304" d="M0,0H15.978" transform="translate(21.304 133.151)" fill="none" stroke="#009723" stroke-linecap="round" stroke-linejoin="round" stroke-miterlimit="10" stroke-width="3"/>
    <path id="Stroke_305" data-name="Stroke 305" d="M0,0H21.3" transform="translate(15.978 117.172)" fill="none" stroke="#009723" stroke-linecap="round" stroke-linejoin="round" stroke-miterlimit="10" stroke-width="3"/>
    <path id="Stroke_306" data-name="Stroke 306" d="M0,0H10.652" transform="translate(26.63 101.194)" fill="none" stroke="#009723" stroke-linecap="round" stroke-linejoin="round" stroke-miterlimit="10" stroke-width="3"/>
    <path id="Stroke_307" data-name="Stroke 307" d="M0,21.3V7.989A7.992,7.992,0,0,1,7.989,0H23.967a7.992,7.992,0,0,1,7.989,7.989V21.3" transform="translate(63.912)" fill="none" stroke="#009723" stroke-linecap="round" stroke-linejoin="round" stroke-miterlimit="10" stroke-width="3"/>
  </g>
</svg>
