<svg xmlns="http://www.w3.org/2000/svg" width="123.09" height="146.98" viewBox="0 0 123.09 146.98">
  <g id="Group_452" data-name="Group 452" transform="translate(-1145.91 -523.772)">
    <g id="Group_451" data-name="Group 451" transform="translate(1145.91 523.772)">
      <g id="Group_442" data-name="Group 442">
        <path id="Path_2414" data-name="Path 2414" d="M703.183,274.055a.238.238,0,0,1-.037,0H628.118a1.208,1.208,0,0,1-1.208-1.208V141.98a1.208,1.208,0,0,1,1.208-1.208h70.551a1.206,1.206,0,0,1,.855.353l35.387,35.392a1.214,1.214,0,0,1,.353.855v63.05a1.209,1.209,0,0,1-1.68,1.113,22.342,22.342,0,0,0-8.773-1.769,22.8,22.8,0,0,0-22.777,22.779,22.56,22.56,0,0,0,2.094,9.548,1.208,1.208,0,0,1-.944,1.962Zm-73.856-2.415H701.31a25.192,25.192,0,0,1,31.537-32.97v-60.8l-34.679-34.685H629.327Z" transform="translate(-626.91 -140.772)" fill="#009723"/>
      </g>
      <g id="Group_443" data-name="Group 443" transform="translate(71.452 0.899)">
        <path id="Path_2415" data-name="Path 2415" d="M702,179.06a.124.124,0,0,1-.037,0H666.577a1.208,1.208,0,0,1-1.21-1.208V142.462a1.208,1.208,0,0,1,2.062-.853L702.66,176.84a1.207,1.207,0,0,1-.658,2.22Zm-34.218-2.415H699.05l-31.266-31.266Z" transform="translate(-665.367 -141.256)" fill="#009723"/>
      </g>
      <g id="Group_444" data-name="Group 444" transform="translate(16.337 15.54)">
        <path id="Path_2416" data-name="Path 2416" d="M673.855,151.551H636.911a1.208,1.208,0,1,1,0-2.415h36.944a1.208,1.208,0,1,1,0,2.415Z" transform="translate(-635.703 -149.136)" fill="#009723"/>
      </g>
      <g id="Group_445" data-name="Group 445" transform="translate(16.337 31.169)">
        <path id="Path_2417" data-name="Path 2417" d="M684.322,159.963H636.911a1.208,1.208,0,1,1,0-2.415h47.411a1.208,1.208,0,1,1,0,2.415Z" transform="translate(-635.703 -157.548)" fill="#009723"/>
      </g>
      <g id="Group_446" data-name="Group 446" transform="translate(16.337 80.056)">
        <path id="Path_2418" data-name="Path 2418" d="M706.135,186.275H636.911a1.208,1.208,0,1,1,0-2.415h69.224a1.208,1.208,0,1,1,0,2.415Z" transform="translate(-635.703 -183.86)" fill="#009723"/>
      </g>
      <g id="Group_447" data-name="Group 447" transform="translate(16.337 65.055)">
        <path id="Path_2419" data-name="Path 2419" d="M706.135,178.2H636.911a1.207,1.207,0,1,1,0-2.414h69.224a1.207,1.207,0,1,1,0,2.414Z" transform="translate(-635.703 -175.786)" fill="#009723"/>
      </g>
      <g id="Group_448" data-name="Group 448" transform="translate(16.337 49.426)">
        <path id="Path_2420" data-name="Path 2420" d="M706.135,169.789H636.911a1.208,1.208,0,1,1,0-2.415h69.224a1.208,1.208,0,1,1,0,2.415Z" transform="translate(-635.703 -167.374)" fill="#009723"/>
      </g>
      <g id="Group_449" data-name="Group 449" transform="translate(72.706 96.579)">
        <path id="Path_2421" data-name="Path 2421" d="M691.236,243.154a25.2,25.2,0,1,1,25.19-25.207A25.229,25.229,0,0,1,691.236,243.154Zm0-47.986a22.786,22.786,0,1,0,22.773,22.779A22.8,22.8,0,0,0,691.236,195.168Z" transform="translate(-666.042 -192.753)" fill="#009723"/>
      </g>
      <g id="Group_450" data-name="Group 450" transform="translate(86.596 117.718)">
        <path id="Path_2422" data-name="Path 2422" d="M682.533,212.255a1.188,1.188,0,0,1-.515-.115l-7.807-3.677a1.208,1.208,0,0,1,1.029-2.185l7.3,3.437,11.876-5.474a1.208,1.208,0,0,1,1.013,2.194l-12.387,5.71A1.24,1.24,0,0,1,682.533,212.255Z" transform="translate(-673.518 -204.13)" fill="#009723"/>
      </g>
    </g>
  </g>
</svg>
