<svg id="Group_440" data-name="Group 440" xmlns="http://www.w3.org/2000/svg" width="167.328" height="167.321" viewBox="0 0 167.328 167.321">
  <g id="Group_436" data-name="Group 436">
    <path id="Path_2395" data-name="Path 2395" d="M190.045,438.094H178.238a1.373,1.373,0,0,1-1.36-1.172l-3.266-21.752a59.607,59.607,0,0,1-10.72-2.868l-13.7,17.215a1.375,1.375,0,0,1-1.762.334l-10.235-5.905a1.376,1.376,0,0,1-.592-1.694l8.057-20.494a61.413,61.413,0,0,1-7.839-7.841l-20.485,8.057a1.371,1.371,0,0,1-1.694-.59l-5.906-10.235a1.38,1.38,0,0,1,.334-1.764l17.2-13.706a61.5,61.5,0,0,1-2.87-10.7l-21.75-3.274a1.375,1.375,0,0,1-1.17-1.36V348.528a1.374,1.374,0,0,1,1.17-1.358L123.4,343.9a62.146,62.146,0,0,1,2.87-10.726l-17.2-13.685a1.38,1.38,0,0,1-.334-1.764l5.906-10.235a1.373,1.373,0,0,1,1.694-.59l20.485,8.054a61.682,61.682,0,0,1,7.839-7.841L136.6,286.618a1.375,1.375,0,0,1,.592-1.694l10.235-5.908a1.38,1.38,0,0,1,1.762.334l13.7,17.2a61.078,61.078,0,0,1,10.717-2.868l3.266-21.744a1.373,1.373,0,0,1,1.36-1.17h11.807a1.374,1.374,0,0,1,1.36,1.17l3.266,21.744a61.312,61.312,0,0,1,10.724,2.87l13.7-17.207a1.371,1.371,0,0,1,1.764-.332l10.225,5.906a1.373,1.373,0,0,1,.592,1.694l-8.057,20.492a61.757,61.757,0,0,1,7.847,7.841l20.479-8.054a1.37,1.37,0,0,1,1.694.59l5.912,10.235a1.376,1.376,0,0,1-.334,1.764l-17.211,13.7a60.884,60.884,0,0,1,2.87,10.709l21.759,3.274a1.376,1.376,0,0,1,1.17,1.358v11.811a1.376,1.376,0,0,1-1.17,1.36l-21.759,3.274a60.929,60.929,0,0,1-2.87,10.7l17.211,13.706a1.375,1.375,0,0,1,.334,1.764l-5.912,10.235a1.37,1.37,0,0,1-1.694.59l-20.479-8.057a61.618,61.618,0,0,1-7.847,7.841l8.057,20.494a1.372,1.372,0,0,1-.594,1.694l-10.225,5.889a1.38,1.38,0,0,1-1.762-.336l-13.7-17.186a60.691,60.691,0,0,1-10.726,2.858l-3.266,21.752A1.374,1.374,0,0,1,190.045,438.094Zm-10.624-2.752h9.442l3.238-21.575a1.376,1.376,0,0,1,1.153-1.155,58,58,0,0,0,12.1-3.221,1.375,1.375,0,0,1,1.572.425l13.588,17.044,8.175-4.706L220.7,401.832a1.38,1.38,0,0,1,.417-1.576,58.686,58.686,0,0,0,8.858-8.848,1.365,1.365,0,0,1,1.572-.417l20.31,7.991,4.727-8.183-17.067-13.592a1.373,1.373,0,0,1-.425-1.571,58.118,58.118,0,0,0,3.236-12.082,1.373,1.373,0,0,1,1.155-1.151l21.579-3.247v-9.444l-21.579-3.247a1.376,1.376,0,0,1-1.155-1.151,58.011,58.011,0,0,0-3.238-12.084,1.378,1.378,0,0,1,.427-1.572l17.067-13.59-4.727-8.184-20.31,7.989a1.368,1.368,0,0,1-1.572-.415,58.7,58.7,0,0,0-8.858-8.85,1.379,1.379,0,0,1-.417-1.576l7.991-20.322-8.177-4.723-13.588,17.063a1.384,1.384,0,0,1-1.572.425,58.63,58.63,0,0,0-12.1-3.236,1.376,1.376,0,0,1-1.149-1.155l-3.238-21.564h-9.442l-3.24,21.564a1.373,1.373,0,0,1-1.149,1.155,58.31,58.31,0,0,0-12.092,3.236,1.381,1.381,0,0,1-1.572-.425l-13.59-17.063-8.184,4.723,7.989,20.322a1.379,1.379,0,0,1-.417,1.576,58.547,58.547,0,0,0-8.85,8.85,1.368,1.368,0,0,1-1.574.415l-20.314-7.989-4.721,8.184,17.059,13.571a1.375,1.375,0,0,1,.427,1.569,59.417,59.417,0,0,0-3.243,12.109,1.373,1.373,0,0,1-1.153,1.146l-21.568,3.247v9.444L124.8,362.4a1.371,1.371,0,0,1,1.153,1.146,58.725,58.725,0,0,0,3.243,12.086,1.377,1.377,0,0,1-.427,1.571L111.708,390.8l4.721,8.183,20.314-7.991a1.366,1.366,0,0,1,1.574.417,58.528,58.528,0,0,0,8.85,8.848,1.38,1.38,0,0,1,.417,1.576l-7.989,20.324,8.181,4.721L161.368,409.8a1.366,1.366,0,0,1,1.576-.423,56.852,56.852,0,0,0,12.086,3.234,1.375,1.375,0,0,1,1.151,1.155Z" transform="translate(-100.481 -270.773)" fill="#009723"/>
  </g>
  <g id="Group_437" data-name="Group 437" transform="translate(42.692 42.69)">
    <path id="Path_2396" data-name="Path 2396" d="M161.631,372.9a40.97,40.97,0,1,1,40.977-40.971A41.015,41.015,0,0,1,161.631,372.9Zm0-79.189a38.219,38.219,0,1,0,38.227,38.219A38.261,38.261,0,0,0,161.631,293.708Z" transform="translate(-120.665 -290.956)" fill="#009723"/>
  </g>
  <g id="Group_438" data-name="Group 438" transform="translate(78.428 78.428)">
    <path id="Path_2409" data-name="Path 2409" d="M142.791,318.32a5.234,5.234,0,1,1,5.233-5.235A5.241,5.241,0,0,1,142.791,318.32Zm0-7.718a2.483,2.483,0,1,0,2.483,2.483A2.486,2.486,0,0,0,142.791,310.6Z" transform="translate(-137.56 -307.852)" fill="#009723"/>
  </g>
  <g id="Group_439" data-name="Group 439" transform="translate(71.581 70.098)">
    <path id="Path_2410" data-name="Path 2410" d="M166.8,320.539a1.038,1.038,0,0,1-.114-.006l-16.547-1.358a1.371,1.371,0,0,1-1.256-1.481,1.352,1.352,0,0,1,1.483-1.258l16.545,1.36a1.374,1.374,0,0,1-.11,2.743Zm-22.939-4.586a1.371,1.371,0,0,1-1.032-.467l-8.16-9.292a1.374,1.374,0,1,1,2.064-1.813l8.16,9.29a1.375,1.375,0,0,1-1.032,2.282Z" transform="translate(-134.323 -303.914)" fill="#009723"/>
  </g>
</svg>
