<svg xmlns="http://www.w3.org/2000/svg" width="64" height="64" viewBox="0 0 64 64"><g><g><path fill="#1a9700" d="M32 0c17.673 0 32 14.327 32 32 0 7.794-2.786 14.937-7.6 20.705C50.713 59.523 41.88 64 32 64 14.327 64 0 49.673 0 32 0 14.327 14.327 0 32 0z"/></g><g><g><path fill="#fff" d="M46.88 44.546c-.96 1.191-1.866 2.315-4.897 2.67-.001 0-.167.02-.48.02-1.782 0-8.203-.606-15.993-8.392-6.914-6.918-9.34-11.661-8.376-16.374.704-3.44 2.574-4.902 2.647-4.957l.064-.048.057-.057c.312-.311.72-.483 1.15-.483.39 0 .752.146 1.018.413l5.027 5.028c.58.578.548 1.55-.067 2.167l-2.216 2.213-.036.039c-.577.636-.51 1.495-.191 2.054.917 1.656 2.174 3.925 4.593 6.343 2.41 2.411 4.675 3.667 6.326 4.583.166.093.507.249.934.249.504 0 .968-.214 1.31-.603l2.08-2.079c.31-.31.717-.481 1.146-.481.391 0 .754.146 1.02.411l5.024 5.026c.639.64.375 1.62-.14 2.258zm1.668-3.783l-5.027-5.029a3.584 3.584 0 0 0-2.545-1.042 3.758 3.758 0 0 0-2.673 1.114l-1.956 1.957c-1.521-.845-3.543-2.008-5.64-4.107-2.096-2.096-3.26-4.111-4.109-5.64l1.96-1.958c1.455-1.459 1.485-3.8.066-5.219l-5.027-5.026a3.568 3.568 0 0 0-2.546-1.047c-.983 0-1.912.379-2.626 1.067-.432.348-2.599 2.26-3.406 6.204-1.13 5.52 1.467 10.832 8.965 18.333 8.376 8.373 15.527 9.024 17.519 9.024.415 0 .665-.026.732-.033 3.906-.458 5.304-2.193 6.326-3.46 1.323-1.642 1.318-3.801-.013-5.138z"/></g></g><g><path fill="#fff" d="M35.838 20.055c1.855.213 4.038 1.336 5.563 2.86 1.54 1.54 2.665 3.746 2.869 5.62a1.08 1.08 0 1 0 2.146-.233c-.258-2.37-1.595-5.018-3.488-6.913-1.877-1.876-4.498-3.209-6.842-3.479a1.08 1.08 0 0 0-.248 2.145z"/></g><g><path fill="#fff" d="M34.83 24.575c1.003.115 2.391.86 3.3 1.769.918.917 1.663 2.318 1.773 3.332a1.079 1.079 0 1 0 2.146-.233c-.188-1.73-1.337-3.57-2.392-4.625-1.046-1.047-2.868-2.19-4.58-2.387a1.079 1.079 0 1 0-.247 2.144z"/></g></g></svg>